# xmcd CD database file
#
# Track frame offsets:
#	150
#	15312
#	32837
#	49375
#	65562
#	91162
#	104062
#	120337
#	142300
#	174412
#
# Disc length: 2503 seconds
#
# Revision: 0
# Processed by: cddbd v1.4PL0 Copyright (c) Steve Scherf et al.
# Submitted via: Feurio! 1.63 - http://www.feurio.com
#
DISCID=8809c50a
DTITLE=Nick Woodland and the Magnets - Big Heart
DYEAR=1992
DGENRE=blues
TTITLE0=Outskirts Of Town
TTITLE1=Precious Time
TTITLE2=Wayfaring Stranger
TTITLE3=Just A Little Bit
TTITLE4=Cross My Heart
TTITLE5=Quiet Kinda Guy
TTITLE6=Teacher Teacher
TTITLE7=Waiting On You - Help Me
TTITLE8=I Got A Mind To Give Up Living
TTITLE9=Gospel Train
EXTD=Enja Records, BLU-10132
EXTT0=
EXTT1=
EXTT2=
EXTT3=
EXTT4=
EXTT5=
EXTT6=
EXTT7=
EXTT8=
EXTT9=
PLAYORDER=
